<svg width="541" height="156" fill="none" xmlns="http://www.w3.org/2000/svg"><path d="M256.858 70.98h-29.474c-.761 0-1.377.617-1.377 1.378v14.41c0 .76.616 1.379 1.377 1.379h11.498v17.903s-2.583.88-9.72.88c-8.42 0-20.184-3.077-20.184-28.944 0-25.873 12.249-29.277 23.749-29.277 9.954 0 14.243 1.753 16.972 2.597.857.263 1.65-.59 1.65-1.352l3.288-13.923c0-.355-.12-.784-.526-1.076-1.109-.79-7.869-4.573-24.949-4.573-19.676 0-39.859 8.371-39.859 48.613 0 40.243 23.108 46.24 42.58 46.24 16.123 0 25.904-6.89 25.904-6.89.403-.223.447-.786.447-1.045V72.358c0-.761-.616-1.378-1.376-1.378M408.751 35.204c0-.767-.607-1.386-1.368-1.386h-16.595a1.38 1.38 0 0 0-1.375 1.386l.005 32.07H363.55v-32.07c0-.767-.611-1.386-1.369-1.386h-16.595c-.755 0-1.371.619-1.371 1.386v86.839c0 .766.616 1.39 1.371 1.39h16.595a1.38 1.38 0 0 0 1.369-1.39V84.899h25.868l-.045 37.144c0 .766.615 1.39 1.374 1.39h16.635c.76 0 1.368-.624 1.369-1.39v-86.84ZM288.174 46.6c0-5.976-4.791-10.805-10.702-10.805-5.905 0-10.7 4.829-10.7 10.804 0 5.97 4.795 10.812 10.7 10.812 5.911 0 10.702-4.842 10.702-10.812ZM286.987 103.725V63.64a1.38 1.38 0 0 0-1.373-1.384h-16.543c-.759 0-1.438.783-1.438 1.544v57.43c0 1.688 1.051 2.19 2.413 2.19h14.904c1.636 0 2.037-.803 2.037-2.217v-17.478M471.821 62.387h-16.468a1.38 1.38 0 0 0-1.37 1.388v42.58s-4.184 3.061-10.122 3.061-7.514-2.694-7.514-8.508V63.775a1.38 1.38 0 0 0-1.369-1.388h-16.714c-.754 0-1.372.622-1.372 1.388v39.945c0 17.269 9.625 21.494 22.866 21.494 10.862 0 19.62-6.001 19.62-6.001s.417 3.162.606 3.538c.189.374.68.751 1.211.751l10.633-.046c.755 0 1.373-.624 1.373-1.387l-.005-58.294c0-.766-.616-1.388-1.375-1.388M510.335 109.364c-5.712-.174-9.586-2.766-9.586-2.766v-27.5s3.823-2.343 8.512-2.762c5.93-.531 11.645 1.26 11.645 15.407 0 14.918-2.579 17.861-10.571 17.621Zm6.496-48.928c-9.353 0-15.715 4.173-15.715 4.173V35.204c0-.767-.613-1.386-1.37-1.386h-16.642c-.757 0-1.371.619-1.371 1.386v86.839c0 .766.614 1.39 1.373 1.39h11.547c.52 0 .914-.268 1.204-.738.287-.467.701-4.004.701-4.004s6.806 6.449 19.688 6.449c15.124 0 23.797-7.671 23.797-34.438 0-26.768-13.852-30.266-23.212-30.266ZM334.683 62.248h-12.449l-.019-16.446c0-.622-.32-.933-1.04-.933h-16.964c-.66 0-1.014.29-1.014.924v16.995s-8.501 2.052-9.076 2.218a1.379 1.379 0 0 0-.994 1.323v10.68c0 .768.614 1.387 1.373 1.387h8.697v25.692c0 19.083 13.386 20.958 22.419 20.958 4.127 0 9.064-1.325 9.879-1.626.493-.182.779-.692.779-1.245l.014-11.749a1.4 1.4 0 0 0-1.376-1.386c-.725 0-2.581.295-4.491.295-6.115 0-8.187-2.843-8.187-6.523l-.001-24.416h12.45c.759 0 1.373-.62 1.373-1.387V63.632c0-.767-.614-1.384-1.373-1.384" fill="#9ca3af"/><path fill-rule="evenodd" clip-rule="evenodd" d="M80.045 0C35.82 0 0 35.788 0 79.973c0 35.388 22.913 65.278 54.73 75.874 4.003.7 5.504-1.699 5.504-3.798 0-1.9-.1-8.198-.1-14.895-20.111 3.698-25.314-4.899-26.915-9.397-.9-2.299-4.803-9.397-8.205-11.296-2.802-1.5-6.804-5.199-.1-5.299 6.303-.1 10.806 5.798 12.307 8.198 7.204 12.095 18.71 8.697 23.313 6.597.7-5.198 2.802-8.697 5.103-10.696-17.81-1.999-36.42-8.897-36.42-39.487 0-8.697 3.101-15.894 8.204-21.492-.8-2-3.602-10.197.8-21.193 0 0 6.704-2.1 22.013 8.197 6.403-1.8 13.207-2.7 20.011-2.7 6.804 0 13.608.9 20.011 2.7 15.309-10.396 22.013-8.197 22.013-8.197 4.402 10.996 1.601 19.193.8 21.193 5.103 5.598 8.205 12.695 8.205 21.492 0 30.69-18.711 37.488-36.52 39.487 2.9 2.499 5.402 7.297 5.402 14.795 0 10.696-.1 19.293-.1 21.993 0 2.099 1.501 4.598 5.503 3.798 31.618-10.596 54.531-40.586 54.531-75.874C160.09 35.788 124.27 0 80.045 0Z" fill="#9ca3af"/></svg>