<svg width="462" height="156" fill="none" xmlns="http://www.w3.org/2000/svg"><path d="M196.605 80c0 21.654-16.969 37.61-37.793 37.61-20.823 0-37.792-15.956-37.792-37.61 0-21.805 16.969-37.609 37.792-37.609 20.824 0 37.793 15.804 37.793 37.61Zm-16.544 0c0-13.53-9.834-22.789-21.249-22.789-11.414 0-21.248 9.259-21.248 22.79 0 13.395 9.834 22.789 21.248 22.789 11.415 0 21.249-9.41 21.249-22.79ZM278.134 80c0 21.654-16.968 37.61-37.792 37.61S202.55 101.654 202.55 80c0-21.788 16.968-37.609 37.792-37.609s37.792 15.804 37.792 37.61Zm-16.544 0c0-13.53-9.834-22.789-21.248-22.789-11.414 0-21.249 9.259-21.249 22.79 0 13.395 9.835 22.789 21.249 22.789 11.414 0 21.248-9.41 21.248-22.79ZM356.267 44.663v67.521c0 27.775-16.408 39.119-35.805 39.119-18.26 0-29.249-12.192-33.394-22.162l14.404-5.986c2.565 6.122 8.849 13.345 18.973 13.345 12.416 0 20.11-7.647 20.11-22.043v-5.41h-.577c-3.703 4.562-10.837 8.546-19.839 8.546-18.837 0-36.094-16.38-36.094-37.457 0-21.229 17.257-37.745 36.094-37.745 8.985 0 16.119 3.985 19.839 8.41h.577v-6.12h15.712v-.017Zm-14.54 35.474c0-13.243-8.849-22.926-20.11-22.926-11.415 0-20.977 9.683-20.977 22.925 0 13.108 9.562 22.654 20.977 22.654 11.261 0 20.11-9.546 20.11-22.654ZM382.169 5.087v110.217h-16.136V5.087h16.136ZM445.049 92.38l12.841 8.545c-4.145 6.122-14.132 16.668-31.389 16.668-21.402 0-37.385-16.515-37.385-37.61 0-22.365 16.119-37.609 35.533-37.609 19.55 0 29.113 15.532 32.238 23.926l1.716 4.273-50.361 20.823c3.855 7.545 9.851 11.394 18.259 11.394 8.424 0 14.267-4.137 18.548-10.41Zm-39.525-13.532 33.665-13.955c-1.852-4.697-7.423-7.97-13.979-7.97-8.408 0-20.111 7.41-19.686 21.925ZM59.941 70.217V54.261h53.86c.527 2.78.799 6.07.799 9.631 0 11.971-3.278 26.774-13.843 37.321-10.276 10.683-23.406 16.38-40.799 16.38C27.72 117.593.611 91.379.611 59.195.611 27.012 27.72.797 59.958.797c17.835 0 30.54 6.986 40.085 16.092L88.765 28.148c-6.845-6.41-16.119-11.395-28.824-11.395-23.541 0-41.954 18.94-41.954 42.442s18.413 42.442 41.954 42.442c15.27 0 23.966-6.12 29.537-11.683C93.998 85.444 96.97 79 98.141 70.2l-38.2.017Z" fill="#9ca3af"/></svg>