<svg width="180" height="180" viewBox="0 0 163 163" fill="none" xmlns="http://www.w3.org/2000/svg">
<path fill-rule="evenodd" clip-rule="evenodd" d="M128 81.5C128 107.181 107.181 128 81.5 128C74.4375 128 67.7428 126.426 61.7477 123.608C60.1352 122.851 58.2014 123.109 56.9416 124.369L37.0707 144.24C35.3303 145.98 35.557 148.871 37.6302 150.197C50.2947 158.302 65.3487 163 81.5 163C126.511 163 163 126.511 163 81.5C163 65.3487 158.302 50.2947 150.197 37.6302C148.871 35.557 145.98 35.3303 144.24 37.0707L124.369 56.9416C123.109 58.2014 122.851 60.1352 123.608 61.7477C126.426 67.7428 128 74.4375 128 81.5ZM124.124 12.0213C126.245 13.3248 126.5 16.2532 124.74 18.0131L104.727 38.0265C103.499 39.254 101.627 39.5334 100.035 38.8408C94.3561 36.37 88.088 35 81.5 35C55.8188 35 35 55.8188 35 81.5C35 88.0881 36.3701 94.3561 38.8408 100.035C39.5334 101.627 39.2541 103.499 38.0265 104.727L18.0131 124.74C16.2532 126.5 13.3248 126.245 12.0213 124.124C4.39707 111.723 0 97.1251 0 81.5C0 36.4888 36.4888 0 81.5 0C97.1251 0 111.723 4.39707 124.124 12.0213Z" fill="#4F46E5"/>
</svg>
