<svg width="732" height="156" fill="none" xmlns="http://www.w3.org/2000/svg"><g clip-path="url(#a)" fill="#9ca3af"><path d="M304.2 31.2v93.6h-16.25V51.35h-.217L258.7 124.8h-10.833l-29.684-73.45h-.216v73.45h-14.95V31.2h23.4l26.866 69.333h.434L282.1 31.2h22.1Zm13.433 7.15c0-2.6.867-4.767 2.817-6.5 1.95-1.733 4.117-2.6 6.717-2.6 2.816 0 5.2.867 6.933 2.6 1.733 1.733 2.817 3.9 2.817 6.5s-.867 4.767-2.817 6.5c-1.95 1.733-4.117 2.6-6.933 2.6-2.817 0-4.984-.867-6.717-2.6-1.733-1.95-2.817-4.117-2.817-6.5Zm17.55 19.283V124.8h-15.816V57.633h15.816Zm47.884 55.684c2.383 0 4.983-.434 7.8-1.734 2.816-1.083 5.416-2.6 7.8-4.333v14.733c-2.6 1.517-5.417 2.6-8.667 3.25-3.25.65-6.717 1.084-10.617 1.084-9.966 0-17.983-3.034-24.05-9.317-6.283-6.283-9.316-14.3-9.316-23.833 0-10.834 3.25-19.717 9.533-26.65 6.283-6.934 15.167-10.4 26.867-10.4 3.033 0 6.066.433 8.883 1.083 3.033.65 5.417 1.733 7.15 2.6v15.167c-2.383-1.734-4.983-3.25-7.367-4.117-2.6-.867-5.2-1.517-7.8-1.517-6.283 0-11.266 1.95-15.166 6.067-3.9 4.117-5.634 9.533-5.634 16.467 0 6.716 1.95 12.133 5.634 15.816 3.683 3.684 8.666 5.634 14.95 5.634Zm60.45-56.767c1.3 0 2.383 0 3.466.217 1.084.216 1.95.433 2.6.65V73.45c-.866-.65-1.95-1.3-3.683-1.733-1.733-.434-3.467-.867-5.85-.867-3.9 0-7.15 1.733-9.75 4.983-2.6 3.25-4.117 8.234-4.117 15.167v33.8h-15.816V57.633h15.816V68.25h.217c1.517-3.683 3.683-6.5 6.5-8.667 3.033-1.95 6.5-3.033 10.617-3.033Zm6.933 35.75c0-11.05 3.25-19.933 9.317-26.433 6.283-6.5 14.95-9.75 26-9.75 10.4 0 18.633 3.033 24.483 9.316 5.85 6.284 8.883 14.734 8.883 25.35 0 10.834-3.25 19.5-9.316 26-6.284 6.5-14.734 9.75-25.567 9.75-10.4 0-18.633-3.033-24.7-9.1-6.067-6.283-9.1-14.733-9.1-25.133Zm16.467-.65c0 6.933 1.516 12.35 4.766 16.033 3.25 3.684 7.8 5.634 13.65 5.634 5.634 0 10.184-1.734 13.217-5.634 3.033-3.683 4.55-9.1 4.55-16.466 0-7.15-1.517-12.567-4.55-16.467-3.033-3.683-7.583-5.633-13-5.633-5.85 0-10.183 1.95-13.433 5.85-3.684 4.116-5.2 9.533-5.2 16.683ZM542.75 75.4c0 2.167.65 4.117 2.167 5.417 1.516 1.3 4.55 2.816 9.533 4.766 6.283 2.6 10.833 5.417 13.217 8.45 2.6 3.25 3.9 6.934 3.9 11.484 0 6.283-2.384 11.266-7.367 15.166-4.767 3.9-11.483 5.634-19.717 5.634-2.816 0-5.85-.434-9.316-1.084-3.467-.65-6.284-1.516-8.667-2.6v-15.6c2.817 1.95 6.067 3.684 9.317 4.767 3.25 1.083 6.283 1.733 9.1 1.733 3.466 0 6.283-.433 7.8-1.516 1.733-1.084 2.6-2.6 2.6-4.984 0-2.166-.867-3.9-2.6-5.633-1.734-1.517-5.2-3.25-9.967-5.2-5.85-2.383-9.967-5.2-12.35-8.233-2.383-3.034-3.683-6.934-3.683-11.7 0-6.067 2.383-11.05 7.15-14.95 4.766-3.9 11.05-5.85 18.633-5.85 2.383 0 4.983.216 7.8.866s5.417 1.3 7.367 1.95v15.384c-2.167-1.3-4.55-2.6-7.367-3.684a22.93 22.93 0 0 0-8.233-1.516c-3.034 0-5.417.65-6.934 1.733-1.516 1.517-2.383 3.033-2.383 5.2Zm35.533 16.9c0-11.05 3.25-19.933 9.317-26.433 6.283-6.5 14.95-9.75 26-9.75 10.4 0 18.633 3.033 24.483 9.316 5.85 6.284 8.884 14.734 8.884 25.35 0 10.834-3.25 19.5-9.317 26-6.283 6.5-14.733 9.75-25.567 9.75-10.4 0-18.633-3.033-24.7-9.1-5.85-6.283-9.1-14.733-9.1-25.133Zm16.467-.65c0 6.933 1.517 12.35 4.767 16.033 3.25 3.684 7.8 5.634 13.65 5.634 5.633 0 10.183-1.734 13.216-5.634 3.034-3.683 4.55-9.1 4.55-16.466 0-7.15-1.516-12.567-4.55-16.467-3.033-3.683-7.583-5.633-13-5.633-5.85 0-10.183 1.95-13.433 5.85-3.467 4.116-5.2 9.533-5.2 16.683Zm104.867-21.017H676V124.8h-16.033V70.633H648.7v-13h11.267v-9.316c0-6.934 2.383-12.784 6.933-17.334 4.55-4.55 10.4-6.716 17.55-6.716 1.95 0 3.683.216 5.2.216 1.517 0 2.817.434 3.9.867V39c-.433-.217-1.517-.65-2.817-1.083-1.3-.434-2.816-.65-4.55-.65-3.25 0-5.85 1.083-7.583 3.033-1.733 1.95-2.6 5.2-2.6 9.1v8.017h23.617V42.25l15.816-4.767v19.934h16.034v13h-16.034v31.416c0 4.117.867 6.934 2.167 8.667 1.517 1.733 3.9 2.6 7.15 2.6.867 0 1.95-.217 3.25-.65 1.3-.433 2.383-.867 3.25-1.517v13c-1.083.65-2.6 1.084-4.983 1.517-2.384.433-4.55.65-6.934.65-6.716 0-11.7-1.733-14.95-5.2s-4.983-8.883-4.983-16.033l.217-34.234ZM74.1 0H0v74.1h74.1V0ZM156 0H81.9v74.1H156V0ZM74.1 81.9H0V156h74.1V81.9ZM156 81.9H81.9V156H156V81.9Z"/></g><defs><clipPath id="a"><path fill="#fff" d="M0 0h731.467v156H0z"/></clipPath></defs></svg>